<svg width="10" height="10" viewBox="0 0 10 10" fill="none" xmlns="http://www.w3.org/2000/svg">
<path d="M3.69336 0.543027C4.04036 0.197973 4.51107 0.00265957 5.0013 0.00265957C5.49153 0.00265957 5.96028 0.197971 6.30729 0.543027L6.30814 0.543881C7.25081 1.48655 8.51516 2.7509 9.45567 3.69337C9.80268 4.04037 9.99734 4.50912 9.99734 4.99935C9.99734 5.49154 9.80268 5.96028 9.45568 6.30729C8.51487 7.24939 7.25004 8.51487 6.30728 9.45698C5.96028 9.80268 5.49153 9.99734 5.0013 9.99734C4.51107 9.99734 4.04036 9.80268 3.69336 9.45697C3.22198 8.98593 2.67009 8.43403 2.11819 7.88213L2.11758 7.88153C1.56589 7.32983 1.01422 6.77817 0.543016 6.30729C0.196015 5.96029 0.00265957 5.49154 0.00265957 4.99935C0.00265957 4.50911 0.196014 4.04037 0.543017 3.69337L3.69336 0.543027Z" fill="#0F52BA" stroke="#0E0E0E" stroke-width="0.00531915"/>
</svg>
