<svg width="10" height="10" viewBox="0 0 10 10" fill="none" xmlns="http://www.w3.org/2000/svg">
<path d="M1.46605 1.46612L1.46605 1.46612C0.529265 2.40148 0.00265957 3.67335 0.00265957 4.99779V5.00074C0.00265957 6.32763 0.529264 7.59705 1.46605 8.53535C2.40185 9.4712 3.67366 9.99734 4.99803 9.99734H5.00197C6.32634 9.99734 7.59716 9.4712 8.53543 8.53535M1.46605 1.46612L8.53543 8.53535M1.46605 1.46612C2.40185 0.527817 3.67366 0.00265957 4.99803 0.00265957H5.00197C6.32634 0.00265957 7.59716 0.527816 8.53542 1.46612C9.47073 2.40148 9.99734 3.67335 9.99734 4.99779M1.46605 1.46612L9.99734 4.99779M8.53543 8.53535C9.47073 7.59705 9.99734 6.32763 9.99734 5.00074V4.99779M8.53543 8.53535L9.99734 4.99779" fill="url(#paint0_linear_725_2135)" stroke="#0E0E0E" stroke-width="0.00531915"/>
<defs>
<linearGradient id="paint0_linear_725_2135" x1="-3.07692" y1="54.2703" x2="78.9999" y2="-12.4227" gradientUnits="userSpaceOnUse">
<stop stop-color="#05C585"/>
<stop offset="0.5" stop-color="#2CAC99"/>
<stop offset="1" stop-color="#9966CC"/>
</linearGradient>
</defs>
</svg>
