<svg width="5" height="5" viewBox="0 0 5 5" fill="none" xmlns="http://www.w3.org/2000/svg">
<mask id="path-1-inside-1_725_2134" fill="white">
<path fill-rule="evenodd" clip-rule="evenodd" d="M5 2.49889C5 1.83632 4.73656 1.20005 4.26865 0.732121C3.79927 0.262718 3.16352 0 2.50098 0H2.49902C1.83648 0 1.20024 0.262718 0.732085 0.732121C0.263442 1.20005 0 1.83632 0 2.49889V2.50037C0 3.16417 0.263442 3.79921 0.732085 4.26862C1.20024 4.73679 1.83648 5 2.49902 5H2.50098C3.16352 5 3.79927 4.73679 4.26865 4.26862C4.73656 3.79921 5 3.16417 5 2.50037V2.49889Z"/>
</mask>
<path fill-rule="evenodd" clip-rule="evenodd" d="M5 2.49889C5 1.83632 4.73656 1.20005 4.26865 0.732121C3.79927 0.262718 3.16352 0 2.50098 0H2.49902C1.83648 0 1.20024 0.262718 0.732085 0.732121C0.263442 1.20005 0 1.83632 0 2.49889V2.50037C0 3.16417 0.263442 3.79921 0.732085 4.26862C1.20024 4.73679 1.83648 5 2.49902 5H2.50098C3.16352 5 3.79927 4.73679 4.26865 4.26862C4.73656 3.79921 5 3.16417 5 2.50037V2.49889Z" fill="url(#paint0_linear_725_2134)"/>
<path d="M0.732085 0.732121L0.735843 0.735885L0.735851 0.735877L0.732085 0.732121ZM0.732085 4.26862L0.728321 4.27238L0.728324 4.27238L0.732085 4.26862ZM4.26865 4.26862L4.27241 4.27238L4.27242 4.27237L4.26865 4.26862ZM5.00532 2.49889C5.00532 1.83491 4.74132 1.19729 4.27241 0.72836L4.26489 0.735882C4.7318 1.20281 4.99468 1.83773 4.99468 2.49889H5.00532ZM4.27241 0.72836C3.80203 0.257958 3.16493 -0.00531915 2.50098 -0.00531915V0.00531915C3.16211 0.00531915 3.79651 0.267478 4.26489 0.735882L4.27241 0.72836ZM2.50098 -0.00531915H2.49902V0.00531915H2.50098V-0.00531915ZM2.49902 -0.00531915C1.83507 -0.00531915 1.19747 0.257957 0.728319 0.728365L0.735851 0.735877C1.203 0.26748 1.83789 0.00531915 2.49902 0.00531915V-0.00531915ZM0.728327 0.728357C0.258683 1.19728 -0.00531915 1.83491 -0.00531915 2.49889H0.00531915C0.00531915 1.83773 0.268202 1.20281 0.735843 0.735885L0.728327 0.728357ZM-0.00531915 2.49889V2.50037H0.00531915V2.49889H-0.00531915ZM-0.00531915 2.50037C-0.00531915 3.16558 0.258685 3.80198 0.728321 4.27238L0.735849 4.26486C0.2682 3.79645 0.00531915 3.16276 0.00531915 2.50037H-0.00531915ZM0.728324 4.27238C1.19747 4.74155 1.83507 5.00532 2.49902 5.00532V4.99468C1.83789 4.99468 1.203 4.73203 0.735846 4.26486L0.728324 4.27238ZM2.49902 5.00532H2.50098V4.99468H2.49902V5.00532ZM2.50098 5.00532C3.16493 5.00532 3.80203 4.74155 4.27241 4.27238L4.2649 4.26485C3.79651 4.73203 3.16211 4.99468 2.50098 4.99468V5.00532ZM4.27242 4.27237C4.74131 3.80198 5.00532 3.16558 5.00532 2.50037H4.99468C4.99468 3.16276 4.7318 3.79645 4.26488 4.26486L4.27242 4.27237ZM5.00532 2.50037V2.49889H4.99468V2.50037H5.00532Z" fill="#0E0E0E" mask="url(#path-1-inside-1_725_2134)"/>
<defs>
<linearGradient id="paint0_linear_725_2134" x1="-1.53846" y1="27.1352" x2="39.5" y2="-6.21135" gradientUnits="userSpaceOnUse">
<stop stop-color="#05C585"/>
<stop offset="0.5" stop-color="#2CAC99"/>
<stop offset="1" stop-color="#9966CC"/>
</linearGradient>
</defs>
</svg>
