<svg width="15" height="26" viewBox="0 0 15 26" fill="none" xmlns="http://www.w3.org/2000/svg">
<path d="M7.49324 1.37881C7.51186 2.08977 7.57189 2.79892 7.71415 3.59967C7.94664 4.90829 8.39874 6.46145 9.24859 8.66685C9.55971 9.4749 10.0746 10.3786 10.6719 11.3288C11.0193 11.8815 11.3947 12.45 11.774 13.0245C12.0469 13.4377 12.3218 13.8541 12.5898 14.27C13.2307 15.2641 13.8326 16.2556 14.2743 17.1953C14.716 18.1351 14.9973 19.0228 14.9973 19.8095C14.9973 23.2231 11.6388 25.9973 7.5 25.9973C3.36124 25.9973 0.00265957 23.2231 0.00265957 19.8095C0.00265957 19.0111 0.375502 18.0271 0.942706 16.9507C1.50987 15.8744 2.27114 14.7061 3.04759 13.5393C3.15469 13.3783 3.26207 13.2174 3.36928 13.0567C4.03927 12.0527 4.7022 11.0593 5.2433 10.1364C5.87089 9.06603 6.33484 8.09016 6.45579 7.30238C7.16198 5.2462 7.4325 3.23401 7.49324 1.37881ZM7.49411 1.16125C7.48913 0.827446 7.49233 0.491148 7.49951 0.142715C7.50378 0.476061 7.50247 0.815819 7.49411 1.16125Z" fill="url(#paint0_linear_725_2136)" stroke="#0E0E0E" stroke-width="0.00531915"/>
<defs>
<linearGradient id="paint0_linear_725_2136" x1="41.1581" y1="43.1605" x2="-18.6797" y2="-46.0536" gradientUnits="userSpaceOnUse">
<stop stop-color="#05C585"/>
<stop offset="0.5" stop-color="#2CAC99"/>
<stop offset="1" stop-color="#9966CC"/>
</linearGradient>
</defs>
</svg>
